<svg width="56" height="56" viewBox="0 0 56 56" fill="none" xmlns="http://www.w3.org/2000/svg">
<g clip-path="url(#clip0_12145_478)">
<path d="M56 0H0V56H56V0Z" fill="#E40523"/>
<path d="M44.6668 41.5827V23.8743C44.6668 23.5509 44.5915 23.2319 44.4469 22.9427C44.3022 22.6534 44.0922 22.4017 43.8335 22.2077L29.2502 11.2702C28.8895 10.9997 28.4509 10.8535 28.0002 10.8535C27.5494 10.8535 27.1108 10.9997 26.7502 11.2702L12.1668 22.2077C11.9081 22.4017 11.6981 22.6534 11.5534 22.9427C11.4088 23.2319 11.3335 23.5509 11.3335 23.8743V41.5827C11.3335 42.1352 11.553 42.6651 11.9437 43.0558C12.3344 43.4465 12.8643 43.666 13.4168 43.666H42.5835C43.136 43.666 43.6659 43.4465 44.0566 43.0558C44.4473 42.6651 44.6668 42.1352 44.6668 41.5827Z" stroke="white" stroke-width="4.16667" stroke-linecap="round" stroke-linejoin="round"/>
<path d="M21.75 31.166C23.5208 32.4785 25.6771 33.2493 28 33.2493C30.3229 33.2493 32.4792 32.4785 34.25 31.166" stroke="white" stroke-width="3.125" stroke-linecap="round"/>
</g>
<defs>
<clipPath id="clip0_12145_478">
<rect width="56" height="56" fill="white"/>
</clipPath>
</defs>
</svg>
